<svg xmlns="http://www.w3.org/2000/svg" version="1.1" xmlns:xlink="http://www.w3.org/1999/xlink" xmlns:svgjs="http://svgjs.dev/svgjs" width="1000" height="1000" viewBox="0 0 1000 1000"><rect width="1000" height="1000" fill="#ffffff"></rect><g transform="matrix(0.7,0,0,0.7,149.56676791285474,227.57076923076926)"><svg viewBox="0 0 317 247" data-background-color="#ffffff" preserveAspectRatio="xMidYMid meet" height="779" width="1000" xmlns="http://www.w3.org/2000/svg" xmlns:xlink="http://www.w3.org/1999/xlink"><g id="tight-bounds" transform="matrix(1,0,0,1,0.19619224517862222,-0.09999999999999432)"><svg viewBox="0 0 316.60761550964276 247.2" height="247.2" width="316.60761550964276"><g><svg viewBox="0 0 395.52 308.812988729332" height="247.2" width="316.60761550964276"><g transform="matrix(1,0,0,1,0,229.38523429549846)"><svg viewBox="0 0 395.52 79.42775443383357" height="79.42775443383357" width="395.52"><g id="textblocktransform"><svg viewBox="0 0 395.52 79.42775443383357" height="79.42775443383357" width="395.52" id="textblock"><g><svg viewBox="0 0 395.52 79.42775443383357" height="79.42775443383357" width="395.52"><g transform="matrix(1,0,0,1,0,0)"><svg width="395.52" viewBox="1.75 -36.099998474121094 183.24000549316406 36.79999923706055" height="79.42775443383357" data-palette-color="#233565"><path d="M44.7-35.4L44.7-35.4 44.7-34.4Q43.1-34.35 42.3-34.02 41.5-33.7 41.23-32.83 40.95-31.95 40.95-30.1L40.95-30.1 40.95-5.3Q40.95-3.5 41.23-2.6 41.5-1.7 42.3-1.4 43.1-1.1 44.7-1L44.7-1 44.7 0Q43.3-0.1 41.18-0.13 39.05-0.15 36.85-0.15L36.85-0.15Q34.45-0.15 32.35-0.13 30.25-0.1 28.95 0L28.95 0 28.95-1Q30.65-1.1 31.53-1.4 32.4-1.7 32.7-2.6 33-3.5 33-5.3L33-5.3 33-32.35 33.35-32.35 20.95 0.05 20.15 0.05 6.65-32.15 6.65-8.2Q6.65-5.45 6.95-3.98 7.25-2.5 8.28-1.88 9.3-1.25 11.5-1L11.5-1 11.5 0Q10.55-0.1 9-0.13 7.45-0.15 6.1-0.15L6.1-0.15Q4.95-0.15 3.75-0.13 2.55-0.1 1.75 0L1.75 0 1.75-1Q3.35-1.25 4.15-1.85 4.95-2.45 5.23-3.83 5.5-5.2 5.5-7.6L5.5-7.6 5.5-30.1Q5.5-31.95 5.23-32.83 4.95-33.7 4.13-34.02 3.3-34.35 1.75-34.4L1.75-34.4 1.75-35.4Q2.55-35.35 3.75-35.3 4.95-35.25 6.1-35.25L6.1-35.25Q8.25-35.25 10.33-35.3 12.4-35.35 14-35.4L14-35.4 24.5-10.05 23.25-8.9 33.3-35.25Q34.15-35.25 35.05-35.25 35.95-35.25 36.85-35.25L36.85-35.25Q39.05-35.25 41.18-35.3 43.3-35.35 44.7-35.4ZM64.75-35.5L64.75-35.5 76.9-4.2Q77.6-2.4 78.47-1.73 79.35-1.05 80.05-1L80.05-1 80.05 0Q78.55-0.1 76.52-0.13 74.5-0.15 72.45-0.15L72.45-0.15Q70.15-0.15 68.1-0.13 66.05-0.1 64.85 0L64.85 0 64.85-1Q67.4-1.1 68.07-1.88 68.75-2.65 67.75-5.2L67.75-5.2 59.25-28.45 60.15-29.75 52.55-9.95Q51.15-6.25 51.17-4.35 51.2-2.45 52.4-1.78 53.6-1.1 55.6-1L55.6-1 55.6 0Q53.95-0.1 52.45-0.13 50.95-0.15 49.4-0.15L49.4-0.15Q48.3-0.15 47.32-0.13 46.35-0.1 45.6 0L45.6 0 45.6-1Q46.65-1.2 47.75-2.35 48.85-3.5 49.9-6.25L49.9-6.25 61.3-35.5Q62.1-35.45 63.02-35.45 63.95-35.45 64.75-35.5ZM53.85-14.4L68.25-14.4 68.25-13.4 53.35-13.4 53.85-14.4ZM80.4-34.4L80.4-35.4Q81.65-35.35 83.77-35.3 85.9-35.25 88-35.25L88-35.25Q90.4-35.25 92.65-35.3 94.9-35.35 95.85-35.35L95.85-35.35Q102.8-35.35 106.25-32.6 109.7-29.85 109.7-25.5L109.7-25.5Q109.7-23.7 109-21.73 108.3-19.75 106.62-18.07 104.95-16.4 102.05-15.35 99.15-14.3 94.75-14.3L94.75-14.3 89.65-14.3 89.65-15.3 94.25-15.3Q97.2-15.3 98.72-16.65 100.25-18 100.82-20.2 101.4-22.4 101.4-24.95L101.4-24.95Q101.4-29.7 100-32.05 98.6-34.4 95.2-34.4L95.2-34.4Q93.25-34.4 92.67-33.55 92.1-32.7 92.1-30.1L92.1-30.1 92.1-5.6Q92.1-3.65 92.5-2.7 92.9-1.75 94.05-1.45 95.2-1.15 97.45-1.1L97.45-1.1 97.45 0Q95.9-0.05 93.45-0.1 91-0.15 88.3-0.15L88.3-0.15Q86.15-0.15 84.1-0.1 82.05-0.05 80.4 0L80.4 0 80.4-1Q82-1.1 82.8-1.4 83.6-1.7 83.87-2.6 84.15-3.5 84.15-5.3L84.15-5.3 84.15-30.1Q84.15-31.95 83.87-32.83 83.6-33.7 82.77-34.02 81.95-34.35 80.4-34.4L80.4-34.4ZM130.99-36.1L130.99-36.1Q134.39-36.1 136.54-35.15 138.69-34.2 140.39-32.85L140.39-32.85Q140.99-32.4 141.39-32.4L141.39-32.4Q142.34-32.4 142.64-35.4L142.64-35.4 143.79-35.4Q143.69-33.45 143.64-30.68 143.59-27.9 143.59-23.3L143.59-23.3 142.44-23.3Q142.09-26.3 141.37-28.53 140.64-30.75 138.69-32.35L138.69-32.35Q137.49-33.5 135.72-34.15 133.94-34.8 132.14-34.8L132.14-34.8Q129.39-34.8 127.44-33.38 125.49-31.95 124.24-29.5 122.99-27.05 122.39-23.98 121.79-20.9 121.79-17.6L121.79-17.6Q121.79-8.6 124.27-4.45 126.74-0.3 131.39-0.3L131.39-0.3Q132.59-0.3 133.49-0.6 134.39-0.9 134.94-1.3L134.94-1.3Q135.64-1.8 135.89-2.38 136.14-2.95 136.14-3.9L136.14-3.9 136.14-8.8Q136.14-11.1 135.77-12.23 135.39-13.35 134.29-13.75 133.19-14.15 131.09-14.2L131.09-14.2 131.09-15.2Q132.14-15.15 133.62-15.13 135.09-15.1 136.69-15.08 138.29-15.05 139.64-15.05L139.64-15.05Q141.74-15.05 143.49-15.1 145.24-15.15 146.34-15.2L146.34-15.2 146.34-14.2Q144.94-14.1 144.52-13.4 144.09-12.7 144.09-9.9L144.09-9.9 144.09 0 143.09 0Q143.04-0.85 142.72-1.85 142.39-2.85 141.64-2.85L141.64-2.85Q141.29-2.85 140.72-2.68 140.14-2.5 138.94-1.8L138.94-1.8Q137.09-0.75 135.04-0.03 132.99 0.7 130.74 0.7L130.74 0.7Q121.99 0.7 117.44-4.05 112.89-8.8 112.89-17.3L112.89-17.3Q112.89-23 115.22-27.2 117.54-31.4 121.62-33.75 125.69-36.1 130.99-36.1ZM167.34-36.1L167.34-36.1Q172.64-36.1 176.62-33.95 180.59-31.8 182.79-27.78 184.99-23.75 184.99-18L184.99-18Q184.99-12.4 182.74-8.2 180.49-4 176.47-1.65 172.44 0.7 167.29 0.7L167.29 0.7Q161.99 0.7 158.02-1.45 154.04-3.6 151.84-7.65 149.64-11.7 149.64-17.4L149.64-17.4Q149.64-23 151.92-27.2 154.19-31.4 158.17-33.75 162.14-36.1 167.34-36.1ZM167.14-35.2L167.14-35.2Q164.34-35.2 162.27-32.95 160.19-30.7 159.06-26.75 157.94-22.8 157.94-17.6L157.94-17.6Q157.94-12.3 159.22-8.38 160.49-4.45 162.67-2.33 164.84-0.2 167.49-0.2L167.49-0.2Q170.29-0.2 172.37-2.45 174.44-4.7 175.56-8.68 176.69-12.65 176.69-17.8L176.69-17.8Q176.69-23.15 175.42-27.05 174.14-30.95 171.97-33.08 169.79-35.2 167.14-35.2Z" opacity="1" transform="matrix(1,0,0,1,0,0)" fill="#233565" class="undefined-text-0" data-fill-palette-color="primary" id="text-0"></path></svg></g></svg></g></svg></g></svg></g><g transform="matrix(1,0,0,1,101.81836940797245,0)"><svg viewBox="0 0 191.88326118405507 191.88326118405507" height="191.88326118405507" width="191.88326118405507"><g><svg></svg></g><g id="icon-0"><svg viewBox="0 0 191.88326118405507 191.88326118405507" height="191.88326118405507" width="191.88326118405507"><g><path d="M0 95.942c0-52.987 42.955-95.942 95.942-95.942 52.987 0 95.942 42.955 95.941 95.942 0 52.987-42.955 95.942-95.941 95.941-52.987 0-95.942-42.955-95.942-95.941zM95.942 184.72c49.031 0 88.779-39.748 88.778-88.778 0-49.031-39.748-88.779-88.778-88.779-49.031 0-88.779 39.748-88.779 88.779 0 49.031 39.748 88.779 88.779 88.778z" data-fill-palette-color="accent" fill="#8bd8bc" stroke="transparent"></path><ellipse rx="94.98221428610726" ry="94.98221428610726" cx="95.94163059202754" cy="95.94163059202754" fill="#8bd8bc" stroke="transparent" stroke-width="0" fill-opacity="1" data-fill-palette-color="accent"></ellipse></g><g transform="matrix(1,0,0,1,50.816527821315184,41.80752541538331)"><svg viewBox="0 0 90.2502055414247 108.26821035328845" height="108.26821035328845" width="90.2502055414247"><g><svg xmlns="http://www.w3.org/2000/svg" xmlns:xlink="http://www.w3.org/1999/xlink" version="1.1" x="0" y="0" viewBox="11.368000030517578 2.8299999237060547 78.93499755859375 94.69397735595703" enable-background="new 0 0 100 100" xml:space="preserve" height="108.26821035328845" width="90.2502055414247" class="icon-s-0" data-fill-palette-color="quaternary" id="s-0"><path fill="#ffffff" d="M85.235 4.888l-21.907 8.898-0.291 0.119-0.164-0.073L47.042 6.114l-1.064-0.472v-0.07l-1.682-0.735-0.08 0.023-0.021-0.01-2.327 0.647v0.018l-0.561 0.157L14.06 13.282l-2.692 0.752v2.794 75.6 4.851l4.672-1.305 27.246-7.609 0.723-0.202 0.003 0.002 15.831 7.979 0.788 0.361 2.254 1.019 2.177-0.883V96.63l1.038-0.421 21.906-8.899 2.297-0.932v-2.479V8.299 2.83L85.235 4.888zM41.867 9.48v75.34 0.12L15.05 92.429v-75.6l26.817-7.49V9.48zM61.032 17.197v75.439l-15.055-7.62V84.82 9.669l15.055 7.374V17.197zM86.621 83.899l-21.56 8.756V17.197v-0.142l21.56-8.757V83.899z" data-fill-palette-color="quaternary"></path><path fill="#ffffff" d="M29.89 58.547c-4.102-6.664-8.007-10.318-12.079-11.338v40.874l5.006-1.384C23.746 77.324 27.463 65.938 29.89 58.547z" data-fill-palette-color="quaternary"></path><path fill="#ffffff" d="M28.194 33.715l-10.383-3.71v14.194c2.747 0.52 5.33 1.891 7.865 4.226L28.194 33.715z" data-fill-palette-color="quaternary"></path><path fill="#ffffff" d="M31.866 61.987c-2.059 6.359-4.978 15.914-5.976 23.862l13.031-3.603V71.175C34.21 68.887 32.25 63.244 31.866 61.987z" data-fill-palette-color="quaternary"></path><path fill="#ffffff" d="M28.817 30.08c0.065-0.417 1.054-7.196-2.713-13.271l-0.008-0.006-8.285 2.291v7.783l10.888 3.89L28.817 30.08z" data-fill-palette-color="quaternary"></path><path fill="#ffffff" d="M28.997 16.001l-0.004 0.013c3.861 6.958 2.75 14.433 2.73 14.549l-3.438 20.08-0.09 0.438c2.243 2.556 4.015 5.354 6.313 9.566l0.083 0.152 0.045 0.168c0.015 0.056 1.245 4.402 4.285 6.758V13.257L28.997 16.001z" data-fill-palette-color="quaternary"></path><path fill="#ffffff" d="M53.392 72.14c-2.32-1.894-1.858-6.787-0.888-14.034 0.351-2.621 0.859-6.424 0.618-7.881-0.212 0.136-0.517 0.362-0.928 0.736-2.143 1.946-3.249 4.535-3.903 7.193v24.63l10.181 5.007V72.855c-0.72 0.13-1.403 0.215-2.025 0.215C55.22 73.07 54.19 72.793 53.392 72.14z" data-fill-palette-color="quaternary"></path><path fill="#ffffff" d="M55.332 35.167c-2.194 2.464-0.69 11.213-0.058 12.752 1.278 1.521 0.91 4.889 0.148 10.576-0.484 3.623-1.387 10.366-0.169 11.362 0.521 0.423 1.706 0.351 3.219 0.003V34.98c-0.143-0.061-0.284-0.13-0.432-0.175C56.169 34.232 55.562 34.911 55.332 35.167z" data-fill-palette-color="quaternary"></path><path fill="#ffffff" d="M48.292 14.501v36.447c0.552-0.766 1.182-1.496 1.922-2.168 0.373-0.338 1.07-0.967 1.899-1.359-0.841-3.53-1.732-10.538 0.724-13.847 0.744-1.003 2.449-2.506 5.637-1.701V19.508L48.292 14.501z" data-fill-palette-color="quaternary"></path><path fill="#ffffff" d="M55.21 47.844c0.009 0.01 0.02 0.019 0.029 0.029-0.008-0.01-0.015-0.027-0.021-0.035L55.21 47.844z" data-fill-palette-color="quaternary"></path><path fill="#ffffff" d="M68.225 69.615c-0.199 0.079-0.389 0.151-0.585 0.229v18.791l16.384-7.002V66.119c-0.157-0.051-0.307-0.099-0.465-0.152C80.323 64.887 73.896 67.4 68.225 69.615z" data-fill-palette-color="quaternary"></path><path fill="#ffffff" d="M67.64 19.895v23.254c0.638 1.593 1.229 3.226 1.802 4.811 1.455 4.026 3.465 9.531 5.017 9.284 1.009-0.166 1.409-1.033 2.298-3.472 1.056-2.896 2.542-6.961 7.268-10.535V12.893L67.64 19.895z" data-fill-palette-color="quaternary"></path><path fill="#ffffff" d="M74.934 60.15c-0.216 0.035-0.428 0.053-0.633 0.053-3.031 0-4.852-3.782-6.661-8.602v15.08c6.056-2.363 12.239-4.699 16.384-3.633V47.126c-2.67 2.646-3.688 5.43-4.5 7.654C78.603 57.306 77.733 59.692 74.934 60.15z" data-fill-palette-color="quaternary"></path></svg></g></svg></g></svg></g></svg></g><g></g></svg></g><defs></defs></svg><rect width="316.60761550964276" height="247.2" fill="none" stroke="none" visibility="hidden"></rect></g></svg></g></svg>